<?xml version="1.0" encoding="UTF-8" standalone="no"?>
<!DOCTYPE svg PUBLIC "-//W3C//DTD SVG 1.1//EN"
 "http://www.w3.org/Graphics/SVG/1.1/DTD/svg11.dtd">
<!-- Generated by graphviz version 5.0.0 (20220707.1540)
 -->
<!-- Title: StorageDiagram Pages: 1 -->
<svg width="1182pt" height="276pt"
 viewBox="0.00 0.00 1181.77 276.00" xmlns="http://www.w3.org/2000/svg" xmlns:xlink="http://www.w3.org/1999/xlink">
<g id="graph0" class="graph" transform="scale(1 1) rotate(0) translate(4 272)">
<title>StorageDiagram</title>
<polygon fill="white" stroke="transparent" points="-4,4 -4,-272 1177.77,-272 1177.77,4 -4,4"/>
<!-- 3 -->
<g id="node1" class="node">
<title>3</title>
<polygon fill="#f2f2f2" stroke="black" points="0,-108.5 0,-257.3 527.68,-257.3 527.68,-108.5 0,-108.5"/>
<text text-anchor="middle" x="263.84" y="-240.7" font-family="Courier New" font-size="14.00">GasContract &lt;&lt;Contract&gt;&gt;</text>
<polyline fill="none" stroke="black" points="0,-232.5 527.68,-232.5 "/>
<text text-anchor="middle" x="24.8" y="-215.9" font-family="Courier New" font-size="14.00">slot</text>
<polyline fill="none" stroke="black" points="0,-207.7 49.61,-207.7 "/>
<text text-anchor="middle" x="24.8" y="-191.1" font-family="Courier New" font-size="14.00">0</text>
<polyline fill="none" stroke="black" points="0,-182.9 49.61,-182.9 "/>
<text text-anchor="middle" x="24.8" y="-166.3" font-family="Courier New" font-size="14.00">1</text>
<polyline fill="none" stroke="black" points="0,-158.1 49.61,-158.1 "/>
<text text-anchor="middle" x="24.8" y="-141.5" font-family="Courier New" font-size="14.00">2</text>
<polyline fill="none" stroke="black" points="0,-133.3 49.61,-133.3 "/>
<text text-anchor="middle" x="24.8" y="-116.7" font-family="Courier New" font-size="14.00">3&#45;7</text>
<polyline fill="none" stroke="black" points="49.61,-108.5 49.61,-232.5 "/>
<text text-anchor="middle" x="288.64" y="-215.9" font-family="Courier New" font-size="14.00">type: &lt;inherited contract&gt;.variable (bytes)</text>
<polyline fill="none" stroke="black" points="49.61,-207.7 527.68,-207.7 "/>
<text text-anchor="middle" x="288.63" y="-191.1" font-family="Courier New" font-size="14.00">mapping(address=&gt;uint256): balances (32)</text>
<polyline fill="none" stroke="black" points="49.61,-182.9 527.68,-182.9 "/>
<text text-anchor="middle" x="288.64" y="-166.3" font-family="Courier New" font-size="14.00">mapping(address=&gt;ImportantStruct): whiteListStruct (32)</text>
<polyline fill="none" stroke="black" points="49.61,-158.1 527.68,-158.1 "/>
<text text-anchor="middle" x="288.33" y="-141.5" font-family="Courier New" font-size="14.00">mapping(address=&gt;uint256): whitelist (32)</text>
<polyline fill="none" stroke="black" points="49.61,-133.3 527.68,-133.3 "/>
<text text-anchor="middle" x="288.53" y="-116.7" font-family="Courier New" font-size="14.00">address[5]: administrators (160)</text>
</g>
<!-- 1 -->
<g id="node2" class="node">
<title>1</title>
<polygon fill="#f2f2f2" stroke="black" points="563.68,-168.3 563.68,-267.5 1173.77,-267.5 1173.77,-168.3 563.68,-168.3"/>
<text text-anchor="middle" x="868.73" y="-250.9" font-family="Courier New" font-size="14.00">ImportantStruct &lt;&lt;Struct&gt;&gt;</text>
<polyline fill="none" stroke="black" points="563.68,-242.7 1173.77,-242.7 "/>
<text text-anchor="middle" x="596.88" y="-226.1" font-family="Courier New" font-size="14.00">offset</text>
<polyline fill="none" stroke="black" points="563.68,-217.9 630.09,-217.9 "/>
<text text-anchor="middle" x="596.88" y="-201.3" font-family="Courier New" font-size="14.00">0</text>
<polyline fill="none" stroke="black" points="563.68,-193.1 630.09,-193.1 "/>
<text text-anchor="middle" x="596.88" y="-176.5" font-family="Courier New" font-size="14.00">1</text>
<polyline fill="none" stroke="black" points="630.09,-168.3 630.09,-242.7 "/>
<text text-anchor="middle" x="901.93" y="-226.1" font-family="Courier New" font-size="14.00">type: variable (bytes)</text>
<polyline fill="none" stroke="black" points="630.09,-217.9 1173.77,-217.9 "/>
<text text-anchor="middle" x="901.6" y="-201.3" font-family="Courier New" font-size="14.00">uint256: amount (32)</text>
<polyline fill="none" stroke="black" points="630.09,-193.1 1173.77,-193.1 "/>
<text text-anchor="middle" x="705.3" y="-176.5" font-family="Courier New" font-size="14.00">unallocated (11)</text>
<polyline fill="none" stroke="black" points="780.51,-168.3 780.51,-193.1 "/>
<text text-anchor="middle" x="872.52" y="-176.5" font-family="Courier New" font-size="14.00">address: sender (20)</text>
<polyline fill="none" stroke="black" points="964.54,-168.3 964.54,-193.1 "/>
<text text-anchor="middle" x="1069.15" y="-176.5" font-family="Courier New" font-size="14.00">bool: paymentStatus (1)</text>
</g>
<!-- 3&#45;&gt;1 -->
<g id="edge1" class="edge">
<title>3:5&#45;&gt;1</title>
<path fill="none" stroke="black" d="M527.68,-170.9C536.14,-170.9 544.71,-171.04 553.34,-171.32"/>
<polygon fill="black" stroke="black" points="553.39,-174.82 563.51,-171.7 553.65,-167.83 553.39,-174.82"/>
</g>
<!-- 2 -->
<g id="node3" class="node">
<title>2</title>
<polygon fill="#f2f2f2" stroke="black" points="709.5,-0.5 709.5,-149.3 1027.95,-149.3 1027.95,-0.5 709.5,-0.5"/>
<text text-anchor="middle" x="868.73" y="-132.7" font-family="Courier New" font-size="14.00">address[5]: administrators &lt;&lt;Array&gt;&gt;</text>
<polyline fill="none" stroke="black" points="709.5,-124.5 1027.95,-124.5 "/>
<text text-anchor="middle" x="734.3" y="-107.9" font-family="Courier New" font-size="14.00">slot</text>
<polyline fill="none" stroke="black" points="709.5,-99.7 759.11,-99.7 "/>
<text text-anchor="middle" x="734.3" y="-83.1" font-family="Courier New" font-size="14.00">3</text>
<polyline fill="none" stroke="black" points="709.5,-74.9 759.11,-74.9 "/>
<text text-anchor="middle" x="734.3" y="-58.3" font-family="Courier New" font-size="14.00">4</text>
<polyline fill="none" stroke="black" points="709.5,-50.1 759.11,-50.1 "/>
<text text-anchor="middle" x="734.3" y="-33.5" font-family="Courier New" font-size="14.00">6</text>
<polyline fill="none" stroke="black" points="709.5,-25.3 759.11,-25.3 "/>
<text text-anchor="middle" x="734.3" y="-8.7" font-family="Courier New" font-size="14.00">7</text>
<polyline fill="none" stroke="black" points="759.11,-0.5 759.11,-124.5 "/>
<text text-anchor="middle" x="893.23" y="-107.9" font-family="Courier New" font-size="14.00">type: variable (bytes)</text>
<polyline fill="none" stroke="black" points="759.11,-99.7 1027.34,-99.7 "/>
<text text-anchor="middle" x="834.32" y="-83.1" font-family="Courier New" font-size="14.00">unallocated (12)</text>
<polyline fill="none" stroke="black" points="909.53,-74.9 909.53,-99.7 "/>
<text text-anchor="middle" x="968.44" y="-83.1" font-family="Courier New" font-size="14.00">address (20)</text>
<polyline fill="none" stroke="black" points="759.11,-74.9 1027.34,-74.9 "/>
<text text-anchor="middle" x="834.32" y="-58.3" font-family="Courier New" font-size="14.00">unallocated (12)</text>
<polyline fill="none" stroke="black" points="909.53,-50.1 909.53,-74.9 "/>
<text text-anchor="middle" x="968.44" y="-58.3" font-family="Courier New" font-size="14.00">address (20)</text>
<polyline fill="none" stroke="black" points="759.11,-50.1 1027.34,-50.1 "/>
<text text-anchor="middle" x="834.32" y="-33.5" font-family="Courier New" font-size="14.00">unallocated (12)</text>
<polyline fill="none" stroke="black" points="909.53,-25.3 909.53,-50.1 "/>
<text text-anchor="middle" x="968.44" y="-33.5" font-family="Courier New" font-size="14.00">address (20)</text>
<polyline fill="none" stroke="black" points="759.11,-25.3 1027.34,-25.3 "/>
<text text-anchor="middle" x="834.32" y="-8.7" font-family="Courier New" font-size="14.00">unallocated (12)</text>
<polyline fill="none" stroke="black" points="909.53,-0.5 909.53,-25.3 "/>
<text text-anchor="middle" x="968.44" y="-8.7" font-family="Courier New" font-size="14.00">address (20)</text>
</g>
<!-- 3&#45;&gt;2 -->
<g id="edge2" class="edge">
<title>3:11&#45;&gt;2</title>
<path fill="none" stroke="black" d="M527.68,-120.9C583.76,-120.9 644.58,-114.68 699.07,-106.81"/>
<polygon fill="black" stroke="black" points="699.79,-110.25 709.17,-105.33 698.77,-103.32 699.79,-110.25"/>
</g>
</g>
</svg>
